<?xml version="1.0" encoding="UTF-8"?>
<svg width="133px" height="30px" viewBox="0 0 133 30" version="1.1" xmlns="http://www.w3.org/2000/svg" xmlns:xlink="http://www.w3.org/1999/xlink">
    <!-- Generator: Sketch 47.1 (45422) - http://www.bohemiancoding.com/sketch -->
    <title>海洛logo</title>
    <desc>Created with Sketch.</desc>
    <defs></defs>
    <g id="四方登录" stroke="none" stroke-width="1" fill="none" fill-rule="evenodd">
        <g id="海洛logo" fill="#FFFFFF">
            <path d="M7.28643871,1.1044898 L5.63405161,1.1044898 C5.40972903,1.1044898 5.22830968,1.28632653 5.22830968,1.50979592 L5.22830968,4.12714286 C5.22830968,4.35122449 5.04627742,4.53306122 4.82195484,4.53306122 L1.21747097,4.53306122 C0.545116129,4.53306122 0.00024516129,5.07734694 0.00024516129,5.74897959 L0.00024516129,7.39959184 C0.00024516129,7.62367347 0.181664516,7.80489796 0.405374194,7.80489796 L12.5862129,7.80489796 C13.2585677,7.80489796 13.8034387,7.26061224 13.8034387,6.58897959 L13.8034387,4.93836735 C13.8034387,4.71428571 13.6220194,4.53306122 13.3976968,4.53306122 L8.90940645,4.53306122 C8.68569677,4.53306122 8.50366452,4.35122449 8.50366452,4.12714286 L8.50366452,2.32040816 C8.50366452,1.64938776 7.95879355,1.1044898 7.28643871,1.1044898" id="Fill-1"></path>
            <path d="M4.34107097,9.05467347 L1.88087742,9.20406122 C1.65778065,9.21753061 1.48678065,9.40977551 1.50087742,9.63263265 L2.37365161,24.4226327 C2.38713548,24.646102 2.5795871,24.8163061 2.80329677,24.8028367 L5.26287742,24.6540612 C5.4865871,24.6399796 5.65697419,24.4483469 5.64349032,24.2242653 L4.77071613,9.43487755 C4.75723226,9.21140816 4.56478065,9.04181633 4.34107097,9.05467347" id="Fill-3"></path>
            <path d="M8.81961613,9.53418367 L8.00751935,24.1521429 C7.99464839,24.3756122 8.16564839,24.5672449 8.38935806,24.580102 L10.8501645,24.7203061 C11.0732613,24.732551 11.2651,24.5623469 11.277971,24.3388776 L12.0900677,9.72091837 C12.1029387,9.49683673 11.9319387,9.30520408 11.7076161,9.29234694 L9.24803548,9.1527551 C9.0237129,9.13928571 8.8324871,9.31071429 8.81961613,9.53418367" id="Fill-5"></path>
            <path d="M0.405680645,28.7014898 L12.3720032,28.7014898 C13.0443581,28.7014898 13.589229,28.1565918 13.589229,27.4855714 L13.589229,25.8343469 C13.589229,25.6102653 13.4071968,25.4290408 13.1834871,25.4290408 L1.21716452,25.4290408 C0.545422581,25.4290408 -6.12903227e-05,25.9739388 -6.12903227e-05,26.6455714 L-6.12903227e-05,28.2961837 C-6.12903227e-05,28.5202653 0.181970968,28.7014898 0.405680645,28.7014898" id="Fill-7"></path>
            <path d="M26.5010161,26.130551 L18.5173387,26.130551 C18.2930161,26.130551 18.1115968,25.9487143 18.1115968,25.7252449 L18.1115968,17.7317755 C18.1115968,17.5076939 18.2930161,17.3264694 18.5173387,17.3264694 L26.5010161,17.3264694 C26.7247258,17.3264694 26.9067581,17.5076939 26.9067581,17.7317755 L26.9067581,25.7252449 C26.9067581,25.9487143 26.7247258,26.130551 26.5010161,26.130551 M22.4374677,0.69177551 L20.7844677,0.69177551 C20.5601452,0.69177551 20.3787258,0.873612245 20.3787258,1.09708163 L20.3787258,13.648102 C20.3787258,13.8727959 20.1966935,14.0534082 19.9729839,14.0534082 L17.2700806,14.0534082 C15.925371,14.0534082 14.835629,15.1432041 14.835629,16.4858571 L14.835629,28.9976939 C14.835629,29.2211633 15.0170484,29.403 15.241371,29.403 L27.7476613,29.403 C29.092371,29.403 30.1827258,28.3138163 30.1827258,26.970551 L30.1827258,14.4593265 C30.1827258,14.2352449 30.0006935,14.0534082 29.7769839,14.0534082 L24.0604355,14.0534082 C23.8361129,14.0534082 23.6546935,13.8727959 23.6546935,13.648102 L23.6546935,8.38218367 C23.6546935,8.15810204 23.8361129,7.97687755 24.0604355,7.97687755 L29.1315968,7.97687755 C29.8039516,7.97687755 30.3488226,7.43197959 30.3488226,6.76034694 L30.3488226,5.10973469 C30.3488226,4.88565306 30.1674032,4.70442857 29.9430806,4.70442857 L24.0604355,4.70442857 C23.8361129,4.70442857 23.6546935,4.52259184 23.6546935,4.29912245 L23.6546935,1.90830612 C23.6546935,1.23667347 23.1092097,0.69177551 22.4374677,0.69177551" id="Fill-10"></path>
            <path d="M41.6904129,8.055 L40.6282516,8.055 C40.403929,8.055 40.2218968,7.87316327 40.2218968,7.64969388 L40.2218968,5.40581633 C40.2218968,5.18173469 40.403929,5.0005102 40.6282516,5.0005102 L41.6904129,5.0005102 C41.9141226,5.0005102 42.0961548,5.18173469 42.0961548,5.40581633 L42.0961548,7.64969388 C42.0961548,7.87316327 41.9141226,8.055 41.6904129,8.055 L41.6904129,8.055 Z M44.8370581,17.9966327 L44.5226387,17.9966327 C44.2983161,17.9966327 44.1168968,17.8154082 44.1168968,17.5913265 L44.1168968,11.7327551 C44.1168968,11.5086735 44.2983161,11.327449 44.5226387,11.327449 L44.8370581,11.327449 C45.0613806,11.327449 45.2428,11.5086735 45.2428,11.7327551 L45.2428,17.5913265 C45.2428,17.8154082 45.0613806,17.9966327 44.8370581,17.9966327 L44.8370581,17.9966327 Z M37.2180581,25.8027551 L37.2180581,24.9780612 C37.2180581,24.7533673 37.4000903,24.5727551 37.6238,24.5727551 L44.8370581,24.5727551 C45.0613806,24.5727551 45.2428,24.7533673 45.2428,24.9780612 L45.2428,25.8027551 C45.2428,26.0268367 45.0613806,26.2080612 44.8370581,26.2080612 L37.6238,26.2080612 C37.4000903,26.2080612 37.2180581,26.0268367 37.2180581,25.8027551 L37.2180581,25.8027551 Z M37.9382194,11.327449 C38.1625419,11.327449 38.3439613,11.5086735 38.3439613,11.7327551 L38.3445742,18.1160204 C38.3451871,18.1521429 38.3507032,18.9382653 37.712671,19.8272449 C37.591929,19.9962245 37.6188968,20.2307143 37.7764129,20.3666327 L38.9354129,21.3694898 C39.1149935,21.5243878 39.3883484,21.4919388 39.5305419,21.3033673 C40.6656387,19.7972449 40.6919935,18.3566327 40.6840258,18.0554082 L40.6840258,11.7327551 C40.6840258,11.5086735 40.8654452,11.327449 41.0897677,11.327449 L41.3710903,11.327449 C41.5954129,11.327449 41.7774452,11.5086735 41.7774452,11.7327551 L41.7774452,19.9294898 C41.7774452,20.1529592 41.9588645,20.3347959 42.1831871,20.3347959 L44.8370581,20.3347959 C45.0613806,20.3347959 45.2428,20.5160204 45.2428,20.740102 L45.2428,21.7056122 C45.2428,21.9290816 45.0613806,22.1109184 44.8370581,22.1109184 L37.6238,22.1109184 C37.4000903,22.1109184 37.2180581,21.9290816 37.2180581,21.7056122 L37.2180581,11.7327551 C37.2180581,11.5086735 37.4000903,11.327449 37.6238,11.327449 L37.9382194,11.327449 Z M34.3410903,5.0005102 L36.5408,5.0005102 C36.7645097,5.0005102 36.9465419,5.18173469 36.9465419,5.40581633 L36.9465419,7.64969388 C36.9465419,7.87316327 36.7645097,8.055 36.5408,8.055 L34.3410903,8.055 C34.1167677,8.055 33.9353484,8.23622449 33.9353484,8.46030612 L33.9353484,11.327449 L33.9420903,11.327449 L33.9420903,26.2080612 L33.9353484,26.2080612 L33.9353484,29.0758163 C33.9353484,29.2992857 34.1167677,29.4811224 34.3410903,29.4811224 L48.1203806,29.4811224 C48.3440903,29.4811224 48.5261226,29.2992857 48.5261226,29.0758163 L48.5261226,26.2080612 L48.5187677,26.2080612 L48.5187677,11.327449 L48.5261226,11.327449 L48.5261226,8.46030612 C48.5261226,8.23622449 48.3440903,8.055 48.1203806,8.055 L45.7778645,8.055 C45.5535419,8.055 45.3721226,7.87316327 45.3721226,7.64969388 L45.3721226,5.40581633 C45.3721226,5.18173469 45.5535419,5.0005102 45.7778645,5.0005102 L47.3088968,5.0005102 C47.9806387,5.0005102 48.5261226,4.45561224 48.5261226,3.78397959 L48.5261226,2.1327551 C48.5261226,1.90928571 48.3440903,1.72744898 48.1203806,1.72744898 L35.1525742,1.72744898 C34.4802194,1.72744898 33.9353484,2.27234694 33.9353484,2.94336735 L33.9353484,4.59520408 C33.9353484,4.81867347 34.1167677,5.0005102 34.3410903,5.0005102 L34.3410903,5.0005102 Z" id="Fill-12"></path>
            <path d="M60.6027677,26.0684082 L53.8289613,26.0684082 C53.6046387,26.0684082 53.4232194,25.8871837 53.4232194,25.663102 L53.4232194,20.443102 C53.4232194,20.2190204 53.6046387,20.0377959 53.8289613,20.0377959 L60.6027677,20.0377959 C60.8270903,20.0377959 61.0085097,20.2190204 61.0085097,20.443102 L61.0085097,25.663102 C61.0085097,25.8871837 60.8270903,26.0684082 60.6027677,26.0684082 L60.6027677,26.0684082 Z M53.4232194,16.7653469 L52.5559613,16.7653469 C52.5559613,16.7653469 50.1466387,16.3753469 50.1466387,19.1714694 L50.1466387,28.935551 C50.1466387,29.1596327 50.328671,29.3408571 50.5529935,29.3408571 L51.7444774,29.3408571 L53.4232194,29.3408571 L61.0085097,29.3408571 L61.8494129,29.3408571 C63.1941226,29.3408571 64.2844774,28.2516735 64.2844774,26.9084082 L64.2844774,26.0684082 L64.2844774,20.0377959 L64.2844774,17.1706531 C64.2844774,16.9471837 64.1024452,16.7653469 63.8787355,16.7653469 L61.0085097,16.7653469 L53.4232194,16.7653469 Z" id="Fill-14"></path>
            <path d="M59.5101452,7.11985714 L63.0435323,7.11985714 C63.7158871,7.11985714 64.2607581,6.57495918 64.2607581,5.90393878 L64.2607581,4.25271429 C64.2607581,4.02863265 64.0793387,3.84740816 63.8550161,3.84740816 L59.5101452,3.84740816 C59.2858226,3.84740816 59.1044032,3.66557143 59.1044032,3.44210204 L59.1044032,1.13638776 C59.1044032,0.911693878 58.9229839,0.730469388 58.6986613,0.730469388 L56.2341774,0.730469388 C56.0104677,0.730469388 55.8284355,0.911693878 55.8284355,1.13638776 L55.8284355,3.44210204 C55.8284355,3.66557143 55.6464032,3.84740816 55.4226935,3.84740816 L54.058371,3.84740816 C53.823629,3.84740816 53.6379194,3.64659184 53.6538548,3.41271429 C53.671629,3.15495918 53.6857258,2.92046939 53.6967581,2.7092449 C53.7335323,2.01312245 53.1782419,1.43210204 52.4807581,1.43210204 L50.8614677,1.43210204 C50.6426613,1.43210204 50.4624677,1.60291837 50.4563387,1.82210204 C50.4244677,2.85557143 50.2675645,5.86536735 49.4989839,9.91230612 C49.4573065,10.1314898 49.5988871,10.3451633 49.8183065,10.3880204 L51.4302419,10.704551 C52.0970806,10.8349592 52.7455323,10.3941429 52.8638226,9.72557143 C53.0054032,8.92659184 53.1243065,8.17169388 53.2235968,7.46577551 C53.2517903,7.26557143 53.4221774,7.11985714 53.6244355,7.11985714 L55.4226935,7.11985714 C55.6464032,7.11985714 55.8284355,7.30108163 55.8284355,7.52516327 L55.8284355,11.5451633 C55.8284355,11.7686327 55.6464032,11.9504694 55.4226935,11.9504694 L51.1985645,11.9504694 C50.5262097,11.9504694 49.9813387,12.4947551 49.9813387,13.1663878 L49.9813387,14.817 C49.9813387,15.0410816 50.163371,15.2223061 50.3870806,15.2223061 L63.2102419,15.2223061 C63.8825968,15.2223061 64.4274677,14.6786327 64.4274677,14.0063878 L64.4274677,12.3557755 C64.4274677,12.1323061 64.2460484,11.9504694 64.0217258,11.9504694 L59.5101452,11.9504694 C59.2858226,11.9504694 59.1044032,11.7686327 59.1044032,11.5451633 L59.1044032,7.52516327 C59.1044032,7.30108163 59.2858226,7.11985714 59.5101452,7.11985714" id="Fill-16"></path>
            <path d="M106.891916,7.93181633 L108.241529,7.02630612 C108.821948,6.63691837 108.951884,5.84038776 108.533884,5.28140816 C106.988142,3.21691837 105.449142,1.80018367 104.797013,1.23753061 C104.622948,1.08691837 104.360013,1.11385714 104.216594,1.29385714 L103.151368,2.631 C102.759723,3.12263265 102.805077,3.83344898 103.261077,4.26569388 C104.025368,4.99059184 105.210723,6.22120408 106.332335,7.82344898 C106.459206,8.00528571 106.707432,8.0554898 106.891916,7.93181633" id="Fill-18"></path>
            <path d="M104.3613,9.4534898 L103.224977,10.6736939 C102.775106,11.1567551 102.790429,11.9092041 103.26359,12.3702245 C104.1903,13.2732857 105.73359,14.8228776 107.203945,16.5028776 C107.351042,16.6706327 107.605397,16.6896122 107.774558,16.5445102 L109.018752,15.4749184 C109.536655,15.0292041 109.584461,14.2455306 109.127848,13.7373673 C107.353494,11.7634898 105.618977,10.0828776 104.937429,9.43634694 C104.774397,9.28083673 104.515139,9.28818367 104.3613,9.4534898" id="Fill-20"></path>
            <path d="M102.599203,28.4294694 L104.006429,29.2492653 C104.60401,29.5970204 105.375042,29.380898 105.697429,28.7698776 C107.944945,24.5092653 108.856945,20.318449 109.103332,19.0070204 C109.146235,18.7804898 108.995461,18.5674286 108.766848,18.5313061 L107.091171,18.2692653 C106.456203,18.1700816 105.855558,18.5778367 105.715203,19.2041633 C105.321719,20.950898 104.363139,24.4866122 102.453332,27.8802857 C102.344235,28.0731429 102.407977,28.3174286 102.599203,28.4294694" id="Fill-22"></path>
            <path d="M114.486155,25.6630408 L114.486155,20.926102 C114.486155,20.7020204 114.668187,20.5207959 114.891897,20.5207959 L127.913026,20.5207959 C128.136735,20.5207959 128.318768,20.7020204 128.318768,20.926102 L128.318768,25.6630408 C128.318768,25.8871224 128.136735,26.0683469 127.913026,26.0683469 L114.891897,26.0683469 C114.668187,26.0683469 114.486155,25.8871224 114.486155,25.6630408 L114.486155,25.6630408 Z M128.318768,17.2483469 L114.486155,17.2483469 L113.822994,17.2483469 L113.645252,17.2483469 C112.300542,17.2483469 111.210187,18.3369184 111.210187,19.6807959 L111.210187,29.2471224 L111.278219,29.2471224 L111.278219,29.3407959 L129.159671,29.3407959 C130.504994,29.3407959 131.594735,28.2522245 131.594735,26.9083469 L131.594735,26.0683469 L131.594735,17.6536531 C131.594735,17.4301837 131.412703,17.2483469 131.188994,17.2483469 L129.665929,17.2483469 L128.318768,17.2483469 Z" id="Fill-24"></path>
            <path d="M114.872223,6.696 C115.1039,6.38497959 115.324545,6.07640816 115.535384,5.77334694 C115.610771,5.6637551 115.733352,5.60069388 115.866352,5.60069388 L125.590674,5.60069388 C125.927771,5.60069388 126.121448,5.98640816 125.9149,6.2515102 C125.040287,7.37191837 123.547255,8.87865306 121.157545,10.2274286 C121.04661,10.2898776 120.908706,10.2972245 120.791029,10.2476327 C118.290384,9.18232653 116.275158,8.06559184 114.982545,7.28559184 C114.777223,7.16130612 114.728803,6.8882449 114.872223,6.696 M125.5919,11.9723265 C125.278706,11.881102 125.203319,11.4696735 125.460126,11.2676327 C128.77961,8.64967347 129.914094,6.0415102 129.998061,5.83946939 L130.123706,5.53763265 L130.123706,3.54477551 C130.123706,2.87253061 129.578223,2.3282449 128.905868,2.3282449 L118.32961,2.3282449 C118.026223,2.3282449 117.830706,2.00436735 117.970448,1.73436735 C117.985158,1.70620408 117.999255,1.67865306 118.012739,1.65232653 C118.116319,1.44967347 118.031126,1.20171429 117.82519,1.10314286 L115.600965,0.0402857143 C115.402997,-0.054 115.167029,0.0231428571 115.066513,0.217836735 C114.468319,1.37681633 112.391803,5.16661224 109.609223,7.72579592 C109.44619,7.87518367 109.429642,8.1237551 109.5749,8.29028571 L110.835642,9.73395918 C111.187448,10.1368163 111.806481,10.1619184 112.190158,9.78906122 L112.199965,9.77987755 C112.332352,9.65069388 112.533997,9.62620408 112.689674,9.72538776 C113.458255,10.210898 114.565771,10.8715102 115.949706,11.5945714 C116.279448,11.766 116.233481,12.2539592 115.874932,12.3519184 C114.365965,12.7621224 112.665771,13.0866122 110.750448,13.2819184 C110.529803,13.3045714 110.364932,13.4986531 110.385158,13.7202857 L110.533481,15.3476327 C110.595997,16.030898 111.213803,16.5298776 111.895965,16.446 C115.583803,15.9923265 118.563126,15.0874286 120.959577,13.9896735 C121.052739,13.9474286 121.156319,13.9437551 121.251932,13.9798776 C124.251481,15.1186531 127.768319,16.1025306 131.55361,16.4802857 C132.242513,16.5494694 132.852352,16.0333469 132.895255,15.3439592 L132.996384,13.716 C133.010481,13.4943673 132.842545,13.3064082 132.6219,13.2898776 C130.1519,13.1025306 127.778739,12.6121224 125.5919,11.9723265" id="Fill-26"></path>
            <path d="M72.2395323,7.93181633 L73.5891452,7.02630612 C74.1695645,6.63691837 74.3001129,5.84038776 73.8815,5.28079592 C72.336371,3.21753061 70.7967581,1.80079592 70.1452419,1.23753061 C69.9711774,1.08753061 69.707629,1.11446939 69.5648226,1.29446939 L68.5008226,2.63161224 C68.1097903,3.1232449 68.1557581,3.83406122 68.612371,4.26630612 C69.3735968,4.98691837 70.5528226,6.21140816 71.6799516,7.82344898 C71.8068226,8.00528571 72.0550484,8.0554898 72.2395323,7.93181633" id="Fill-29"></path>
            <path d="M69.709529,9.4534898 L68.5732065,10.6736939 C68.1227226,11.1573673 68.1386581,11.9092041 68.6118194,12.3702245 C69.538529,13.2732857 71.0818194,14.8228776 72.5521742,16.5028776 C72.699271,16.6706327 72.9536258,16.6896122 73.1221742,16.5445102 L74.3669806,15.4749184 C74.884271,15.0292041 74.9326903,14.2455306 74.4754645,13.7373673 C72.7011097,11.7634898 70.9665935,10.0828776 70.2856581,9.43634694 C70.1220129,9.28022449 69.8633677,9.28818367 69.709529,9.4534898" id="Fill-31"></path>
            <path d="M67.9468194,28.4294694 L69.3546581,29.2492653 C69.9516258,29.5970204 70.7226581,29.380898 71.0456581,28.7698776 C73.2931742,24.5092653 74.2045613,20.318449 74.4509484,19.0070204 C74.4938516,18.7804898 74.3430774,18.5674286 74.1150774,18.5313061 L72.4387871,18.2692653 C71.8044323,18.1700816 71.2037871,18.5778367 71.0628194,19.2041633 C70.6699484,20.950898 69.7107548,24.4866122 67.8009484,27.8802857 C67.6918516,28.0731429 67.7555935,28.3174286 67.9468194,28.4294694" id="Fill-33"></path>
            <path d="M86.1663484,13.8754898 L86.1663484,23.3101837 C86.1663484,23.5336531 86.3483806,23.7154898 86.5720903,23.7154898 L89.0365742,23.7154898 C89.2608968,23.7154898 89.4423161,23.5336531 89.4423161,23.3101837 L89.4423161,13.8754898 C89.4423161,13.6514082 89.2608968,13.4701837 89.0365742,13.4701837 L86.5720903,13.4701837 C86.3483806,13.4701837 86.1663484,13.6514082 86.1663484,13.8754898" id="Fill-35"></path>
            <path d="M79.3208323,5.65506122 L96.9791871,5.65506122 C97.650929,5.65506122 98.1964129,5.11077551 98.1964129,4.43914286 L98.1964129,2.78791837 C98.1964129,2.56444898 98.0143806,2.38261224 97.790671,2.38261224 L80.0624452,2.38261224 C79.8172839,2.38261224 79.6278968,2.1664898 79.6603806,1.92342857 C79.6867355,1.7275102 79.7088,1.55485714 79.7265742,1.41159184 C79.7541548,1.1875102 79.5929613,0.983632653 79.3680258,0.959142857 L77.7064452,0.775469388 C77.0530903,0.703836735 76.4610258,1.16118367 76.3684774,1.812 C76.1643806,3.24281633 75.8070581,5.29567347 75.3620903,6.50730612 C75.2891548,6.70689796 75.382929,6.92485714 75.5766065,7.01240816 L77.0095742,7.65771429 C77.6782516,7.95893878 78.4658323,7.6075102 78.6748323,6.90526531 C78.7643161,6.60404082 78.8482839,6.28873469 78.9267355,5.96730612 C78.9714774,5.78485714 79.132671,5.65506122 79.3208323,5.65506122" id="Fill-37"></path>
            <path d="M97.5361323,16.8590204 C97.3124226,16.8590204 97.1303903,16.6771837 97.1303903,16.4537143 L97.1303903,11.1498367 L97.1303903,10.3098367 C97.1303903,8.96657143 96.0406484,7.87738776 94.6953258,7.87738776 L93.8544226,7.87738776 L81.5540677,7.87738776 L80.7125516,7.87738776 C79.3678419,7.87738776 78.2774871,8.96657143 78.2774871,10.3098367 L78.2774871,16.4537143 C78.2774871,16.6771837 78.0960677,16.8590204 77.8717452,16.8590204 L76.7041645,16.8590204 C76.4804548,16.8590204 76.2984226,17.0402449 76.2984226,17.2643265 L76.2984226,19.7261633 C76.2984226,19.9496327 76.4804548,20.1314694 76.7041645,20.1314694 L77.8717452,20.1314694 C78.0960677,20.1314694 78.2774871,20.3133061 78.2774871,20.5367755 L78.2774871,25.9520816 L78.2774871,26.7920816 C78.2774871,28.1353469 79.3678419,29.2239184 80.7125516,29.2239184 L92.2719065,29.2239184 C91.8955839,28.633102 91.6749387,27.9339184 91.6749387,27.1820816 C91.6749387,26.750449 91.7497129,26.3377959 91.8814871,25.9520816 L82.3655516,25.9520816 C81.9175194,25.9520816 81.5540677,25.5884082 81.5540677,25.1408571 L81.5540677,11.960449 C81.5540677,11.5135102 81.9175194,11.1498367 82.3655516,11.1498367 L93.0429387,11.1498367 C93.490971,11.1498367 93.8544226,11.5135102 93.8544226,11.960449 L93.8544226,23.7406531 C94.3514871,23.5043265 94.9055516,23.3684082 95.4927129,23.3684082 C96.0792613,23.3684082 96.6333258,23.5043265 97.1303903,23.7406531 L97.1303903,20.5367755 C97.1303903,20.3133061 97.3124226,20.1314694 97.5361323,20.1314694 L98.9041323,20.1314694 C99.1290677,20.1314694 99.3104871,19.9496327 99.3104871,19.7261633 L99.3104871,17.2643265 C99.3104871,17.0402449 99.1290677,16.8590204 98.9041323,16.8590204 L97.5361323,16.8590204 Z" id="Fill-39"></path>
            <path d="M98.1963516,27.1822653 C98.1963516,28.6694082 96.9889323,29.8749184 95.5001903,29.8749184 C94.0108355,29.8749184 92.804029,28.6694082 92.804029,27.1822653 C92.804029,25.6945102 94.0108355,24.489 95.5001903,24.489 C96.9889323,24.489 98.1963516,25.6945102 98.1963516,27.1822653" id="Fill-41"></path>
        </g>
    </g>
</svg>